<svg width="94" height="94" viewBox="0 0 94 94" fill="none" xmlns="http://www.w3.org/2000/svg">
<path d="M92.3234 35.5232C93.5434 40.2531 93.9953 44.9941 93.644 49.7614C92.7062 62.4887 87.5567 73.2186 78.0438 81.7871C71.1809 87.9687 63.1505 91.771 54.0362 93.1423C42.3047 94.9075 31.3747 92.5533 21.4299 86.0927C12.2438 80.125 5.86467 71.8696 2.45782 61.4484C-1.41959 49.5878 -0.743518 37.8875 4.72939 26.6829C11.9227 11.9559 23.8175 3.119 39.9708 0.605392C54.2447 -1.61577 67.0188 2.30691 77.9193 11.8488C85.1574 18.1847 89.9267 26.1024 92.3234 35.5232ZM79.1287 77.9237C79.6632 77.3615 80.1819 76.7832 80.7362 76.2412C81.4227 75.5702 81.3468 75.0542 80.6172 74.4191C78.5291 72.6015 76.4843 70.7332 74.4505 68.8546C73.5122 67.9879 73.5375 67.7356 74.4068 66.895C75.3538 65.9793 75.6227 65.9577 76.46 66.8803C78.2752 68.8804 80.0738 70.8958 81.8617 72.9204C82.2723 73.3854 82.6617 73.7183 83.1688 73.1001C83.8712 72.2436 84.5322 71.3551 84.9578 70.2811C84.5814 69.8815 84.1227 69.7966 83.6598 69.7067C82.3998 69.462 81.195 68.9917 80.4334 67.9542C79.3917 66.5352 78.1978 65.4544 76.4105 65.1618C76.3681 65.1548 76.3406 65.0563 76.2895 64.9735C76.4055 64.4435 76.8391 64.0797 77.1041 63.6199C77.5847 62.7859 78.234 62.6928 79.0728 63.1553C80.2499 63.8042 81.0253 64.8006 81.6609 65.932C82.1761 66.8491 82.8878 67.5295 83.8563 67.948C85.9694 68.8608 86.0428 68.837 87.0448 66.791C87.7372 65.377 87.6752 65.2743 86.1456 64.7553C83.8762 63.9853 81.6122 63.1986 79.3579 62.3855C78.3492 62.0216 78.1997 61.5363 78.6586 60.474C79.1018 59.4481 79.4387 59.3035 80.4532 59.7755C82.3203 60.6442 84.1719 61.546 86.0406 62.4111C88.6577 63.6226 88.3644 64.0952 89.4585 60.9237C89.868 59.7368 89.5854 59.4301 88.3504 59.6725C86.7977 59.9772 85.3153 59.8301 83.96 58.9781C82.8554 58.2837 81.7009 57.9339 80.3974 58.2273C80.1334 58.2867 79.8575 58.3495 79.6727 58.0567C79.2266 57.3504 80.1611 55.4785 81.0009 55.4125C82.2462 55.3147 83.3232 55.7346 84.2767 56.5137C85.5611 57.5633 86.9919 58.048 88.6855 57.917C90.4115 57.7835 90.4175 57.8604 90.7412 56.1632C91.1252 54.1494 90.9139 53.9553 88.8605 54.1473C86.4067 54.3767 83.9447 54.5077 81.4789 54.5145C80.4133 54.5175 80.0607 54.1793 80.0747 53.2519C80.0929 52.0516 80.3407 51.7432 81.4506 51.7463C84.0166 51.7533 86.5752 51.9356 89.1332 52.129C91.4028 52.3007 91.5765 52.4021 91.5751 50.186C91.5749 50.0184 91.6209 49.8512 91.6317 49.683C91.6718 49.0618 92.043 48.271 91.4617 47.8784C90.7931 47.4268 90.0406 47.8818 89.3873 48.2567C89.2115 48.3575 89.0334 48.4552 88.8638 48.5656C87.4766 49.4688 85.9465 49.8624 84.324 49.5928C83.0889 49.3876 81.9852 49.4995 80.9462 50.2189C80.676 50.406 80.3442 50.5649 80.0245 50.2522C79.2123 49.4578 79.5735 47.6596 80.6345 47.2472C81.7606 46.8095 82.8846 46.9268 84.0089 47.2706C85.4218 47.7026 86.7969 47.6594 88.134 46.9633C88.9475 46.5398 89.8159 46.2314 90.7334 46.1664C91.4788 46.1135 91.7556 45.7241 91.7201 45.0495C91.6829 44.3426 91.59 43.6387 91.5469 42.932C91.454 41.4086 91.2951 41.3143 89.9478 41.966C86.7576 43.5091 83.5652 45.0475 80.3687 46.5773C79.5288 46.9793 79.0745 46.7517 78.6655 45.7775C78.1973 44.6625 78.3047 44.2762 79.2325 43.9194C80.4611 43.4469 81.692 42.9778 82.9354 42.5463C85.3272 41.7163 87.7307 40.9202 90.1239 40.094C90.5872 39.9341 91.1981 39.8144 91.0651 39.1176C90.8314 37.8932 90.5637 36.6734 90.2533 35.4664C90.0946 34.8497 89.6677 34.7579 89.1908 35.1836C88.6991 35.6222 88.1058 35.8558 87.5126 36.1023C86.394 36.567 85.4687 37.2613 84.8167 38.3107C84.2526 39.2189 83.4964 39.9718 82.4989 40.363C80.733 41.0554 78.6868 41.2527 77.9428 43.3423C77.2095 43.1108 77.058 42.6182 76.8011 42.2432C76.0469 41.1421 76.1746 40.5602 77.2505 39.7842C78.0418 39.2136 78.9324 38.9229 79.886 38.8251C81.5093 38.6586 82.8658 38.0123 83.8839 36.7095C84.7379 35.6166 85.9126 35.0701 87.2239 34.7473C87.6134 34.6514 88.0186 34.5492 88.3635 34.3554C89.4763 33.7302 89.6623 33.2223 89.2166 32.0335C88.7784 30.8649 88.3278 29.699 87.8259 28.5568C87.3452 27.4629 87.0431 27.4399 86.294 28.3336C85.5137 29.2644 84.7506 30.2107 83.9429 31.1172C81.4501 33.9151 78.9481 36.705 76.431 39.4811C75.6401 40.3533 75.3976 40.2794 74.2843 39.2691C73.57 38.6209 73.6739 38.0941 74.3309 37.5078C75.0867 36.8334 75.8047 36.1169 76.557 35.4385C79.6164 32.6796 82.6521 29.8926 85.8449 27.2872C86.6258 26.65 86.6941 26.0594 86.187 25.2158C85.09 23.3908 83.9646 21.5904 82.6891 19.8815C81.9887 18.9431 81.2363 18.1206 80.1142 17.6784C79.8028 17.5557 79.2907 17.3862 79.4171 16.9348C79.6283 16.1802 79.1388 15.8092 78.7443 15.364C77.8258 14.3274 76.7908 13.4151 75.7214 12.5388C65.3329 4.02623 53.4615 0.65492 40.1809 2.5085C32.2882 3.61008 25.2401 6.80864 19.0042 11.7823C17.7622 12.7729 17.6406 13.0975 18.0573 14.6761C19.7629 12.5591 19.8134 12.5392 20.8358 13.5764C21.4629 12.2939 21.7747 12.2524 22.7151 13.3275C22.7817 13.4035 22.8319 13.4951 22.9039 13.5648C23.0518 13.7081 23.216 13.8449 23.4373 13.7271C23.6501 13.6138 23.689 13.396 23.6275 13.1995C23.4477 12.6251 23.3276 11.9777 22.5342 11.9333C22.1787 11.9135 21.9329 11.7612 21.9396 11.3922C21.9462 11.0304 22.2357 10.8933 22.5426 10.8024C22.8894 10.6997 23.2685 10.711 23.5049 10.9543C24.3403 11.8143 25.5577 11.8449 26.536 12.412C27.6046 13.0314 29.7424 12.4248 30.2425 11.5556C30.473 11.1551 30.4932 10.3384 31.1386 10.5593C31.758 10.7714 31.4149 11.5057 31.3876 12.0129C31.3718 12.3058 31.2108 12.5894 31.1275 12.8807C31.0538 13.1385 30.961 13.4092 31.3221 13.6153C32.6906 12.9243 33.9174 11.9839 35.1656 11.0764C35.4136 10.8961 35.6782 10.6895 35.9915 10.8985C36.2686 11.0833 36.174 11.3753 36.1188 11.6402C35.963 12.3882 36.3858 12.7307 36.9974 13.025C37.8143 13.418 38.8804 13.6122 39.4427 14.1017C40.6131 15.1207 41.7264 14.561 42.6933 14.2974C46.0286 13.3881 49.1392 11.8195 52.5798 11.1173C55.7295 10.4745 58.8814 10.3166 62.0374 10.3886C64.8549 10.4528 67.6797 10.8181 70.4458 11.4518C71.2596 11.6383 72.0772 11.8563 72.9468 12.364C72.367 12.4503 72.004 12.1402 71.6029 12.2809C71.6173 12.5654 72.0489 12.5098 72.0007 12.8055C70.2742 13.6511 68.5341 13.8603 66.7201 13.0757C66.3379 12.9104 65.8597 12.9444 65.4243 12.9283C62.1328 12.8068 58.8432 12.9669 55.5907 13.4129C52.5565 13.8289 49.5616 14.5437 46.6176 15.3988C45.7014 15.6649 44.9064 16.0886 43.9185 15.639C43.4744 15.4369 42.9208 15.6886 42.4412 15.847C42.0527 15.9753 41.6338 16.1628 41.6308 16.6434C41.6278 17.1345 42.1109 17.1714 42.4435 17.2607C43.3852 17.5137 44.17 17.9123 44.7284 18.7889C45.0281 19.2592 45.5459 19.6577 46.2611 19.667C46.4006 18.6129 45.4369 17.7395 45.7949 16.6397C46.2317 16.8128 46.3619 17.0918 46.4961 17.36C47.2512 18.8702 48.0349 20.3673 48.7423 21.8996C49.179 22.8453 49.4073 23.914 50.6549 24.1705C50.7936 24.199 50.9681 24.3745 51.0075 24.5151C51.4597 26.1251 52.9271 27.4457 52.3919 29.3389C52.3355 29.5382 52.3274 29.7804 52.4891 29.9141C53.7109 30.9245 53.4683 32.6031 54.2772 33.8022C54.4452 34.0511 54.4984 34.3732 54.3262 34.6721C53.5048 36.0978 52.708 37.537 51.2267 38.4279C50.8315 38.6655 50.3471 38.9489 50.3389 39.4687C50.3267 40.2487 49.982 40.9212 49.6906 41.5794C49.1634 42.7704 48.6207 44.0935 47.557 44.8217C45.9113 45.9481 45.2619 47.4808 45.0193 49.3066C44.7932 51.0071 44.7658 52.7501 43.3504 54.0521C42.9368 54.4325 42.7973 55.035 42.758 55.6336C42.7227 56.1704 42.6683 56.7228 42.5043 57.2301C42.2633 57.9763 42.4277 58.4031 43.1682 58.748C44.7107 59.4664 45.7384 60.6877 46.2801 62.3058C46.4837 62.9138 46.7176 63.5165 46.8589 64.1396C47.0804 65.1166 47.5751 65.8307 48.4497 66.3606C50.8151 67.7938 52.823 69.7262 55.1385 71.2309C55.9339 71.7478 56.5355 72.6068 57.6686 72.5671C58.1103 72.5515 58.2689 73.0358 58.2957 73.4779C58.3909 75.046 59.654 75.8052 60.5735 77.0208C61.1394 76.0278 60.9535 75.1218 61.0988 74.285C61.152 73.9785 61.0623 73.6511 60.6752 73.5889C60.2484 73.5203 60.0729 73.7847 59.9973 74.1638C59.954 74.3811 59.9722 74.6573 59.5826 74.6935C59.2042 74.1663 59.1968 73.5672 59.4556 73.0037C59.7009 72.4695 60.2512 72.6105 60.7178 72.615C61.8914 72.6263 62.0467 72.7762 62.0416 73.9752C62.0395 74.4474 62.0154 74.921 61.971 75.3911C61.765 77.5713 61.4496 79.7606 62.6943 81.7779C62.7806 81.9176 62.8019 82.0965 62.8597 82.2549C63.4284 83.812 63.7962 85.4217 64.1555 87.0364C64.2374 87.4041 64.2124 87.9797 64.9123 87.8863C66.0599 87.7332 66.5463 87.0702 66.3027 85.9601C66.2452 85.6984 66.1943 85.4209 66.2187 85.1579C66.3692 83.5365 65.9062 82.1064 65.0109 80.7613C64.187 79.5237 63.9865 78.1131 64.2706 76.6739C64.5061 75.4813 64.3929 74.397 63.6993 73.3853C63.528 73.1354 63.3545 72.8674 63.5983 72.5555C64.2375 71.7374 66.0832 71.9783 66.5114 72.927C66.9959 74.0004 66.9969 75.0884 66.6369 76.1872C66.0913 77.8525 66.2472 79.4355 67.0857 80.9798C67.7015 82.1141 67.8896 83.3243 67.5844 84.6094C67.4477 85.1846 67.3727 85.7946 67.7239 86.4661C68.7662 86.093 69.6379 85.519 70.5022 84.962C72.836 83.4577 72.5702 83.9454 71.4566 81.5869C70.0728 78.6562 68.6795 75.73 67.2927 72.8007C67.0683 72.3266 66.8958 71.8694 67.41 71.4343C68.5559 70.4647 69.5407 70.6692 70.0394 72.0597C71.1669 75.2038 72.2595 78.3605 73.3638 81.513C73.4837 81.8551 73.5024 82.2505 73.9691 82.4987C75.0661 81.8399 75.9928 80.9063 76.9941 80.0664C77.5351 79.6126 77.4768 79.1805 77.1068 78.6678C76.5815 77.9399 75.8671 77.4301 75.1551 76.9171C74.0958 76.1539 73.3873 75.1434 73.1113 73.8755C72.8289 72.5778 72.3786 71.4262 71.1572 70.71C70.839 70.5234 70.5869 70.2326 70.8778 69.7841C71.7178 68.4891 73.1114 68.4109 74.0364 69.6176C74.349 70.0255 74.5582 70.4827 74.7408 70.957C75.0115 71.6603 75.0118 72.4114 75.139 73.1402C75.5262 75.3574 77.5014 76.4206 78.7311 78.026C78.7609 78.0649 78.9171 78.007 79.1287 77.9237ZM29.2536 57.5332C28.7814 57.3504 28.3026 57.1828 27.8388 56.9807C27.3417 56.7642 26.5514 56.683 26.7823 55.9087C26.9909 55.2092 27.7139 55.4013 28.2751 55.4553C28.5073 55.4777 28.7487 55.5347 28.959 55.6332C29.9822 56.1125 31.0731 55.9922 32.1475 56.0213C32.4618 56.0299 32.774 55.997 32.9036 55.6489C33.0297 55.3104 32.8446 55.0414 32.6062 54.8499C32.2665 54.5771 31.894 54.3428 31.5229 54.1122C30.9195 53.7371 30.6623 53.1804 30.6533 52.496C30.649 52.1686 30.7766 51.8023 31.1302 51.8356C32.1491 51.9317 33.1675 51.3084 34.1959 51.9276C34.9836 52.4018 35.7627 52.2251 36.3932 51.5421C37.032 50.85 36.6663 50.1522 36.3574 49.4784C36.2055 49.1469 35.8482 48.8753 35.9125 48.4842C36.1385 47.1093 35.754 45.7261 36.0213 44.3488C36.2165 43.3429 36.5896 42.9673 37.604 43.1402C38.4341 43.2818 39.2276 43.1792 39.9978 42.9419C40.62 42.7502 41.2301 42.6347 41.8806 42.6266C42.9673 42.6131 43.5913 41.9486 43.2746 40.9247C42.8863 39.6696 42.5425 38.4154 42.2947 37.1267C42.1983 36.6258 41.8472 36.2291 41.4855 35.8629C40.7937 35.1628 39.9525 34.6735 39.12 34.0922C39.0137 34.4692 38.9424 34.8175 38.4639 34.6014C38.1886 34.4771 37.894 34.3889 37.6006 34.3132C37.2649 34.2264 36.9147 34.1983 36.6677 34.5068C36.3981 34.8437 36.6351 35.1296 36.7894 35.4317C36.9635 35.7724 37.3915 35.9875 37.316 36.5372C36.6206 36.459 36.2997 35.9254 35.9093 35.5001C35.6662 35.2353 35.5289 34.8103 35.0701 34.8684C34.5903 34.9292 34.605 35.3846 34.4785 35.7157C34.1397 36.6018 33.6984 37.3792 32.6716 37.649C32.4979 37.1539 32.7986 36.9702 32.9872 36.7589C33.5532 36.125 33.8741 35.401 33.8226 34.5463C33.7385 33.1494 32.7025 32.5188 31.4836 33.0935C31.0841 33.2819 30.6639 33.4207 30.2296 33.1796C29.1774 32.5956 28.3767 32.8173 27.7616 33.8445C27.5169 34.2531 27.4674 34.816 26.9399 35.0325C26.4996 34.6979 27.0912 34.1915 26.5152 33.8089C25.4927 34.7798 25.9433 36.6325 24.6082 37.5593C24.3748 36.9184 24.916 36.5073 24.635 35.9766C23.9635 36.2967 23.7054 36.8302 23.7232 37.5179C23.7385 38.1139 23.6173 38.6769 23.2549 39.1414C22.4085 40.226 21.7878 41.4745 20.7284 42.409C19.7155 43.3026 18.9414 44.3534 19.2099 45.8511C19.2478 46.0624 19.1512 46.3258 19.0474 46.5297C18.6209 47.3676 17.9394 48.0849 18.0058 49.2139C16.5963 48.2038 16.3028 46.4388 14.8154 45.6702C14.7821 46.2431 15.3013 46.6492 15.0701 47.1219C14.8291 47.3245 14.6918 46.9109 14.4531 47.1522C15.1663 48.3633 15.7559 49.6853 17.3791 49.9747C17.6772 50.0278 17.8324 50.278 17.8831 50.553C18.093 51.6915 18.8712 52.531 19.3932 53.5065C20.2844 55.1721 21.4236 56.7323 22.5062 58.2076C23.5815 59.673 24.77 61.1031 25.7452 62.6632C27.8463 66.0246 30.8546 65.9644 34.2147 64.8743C34.5641 64.761 34.904 64.5268 35.0752 64.1921C36.0682 62.2507 37.4736 60.6219 38.9037 59.0034C39.4419 58.3943 39.3916 57.6631 39.1211 56.9278C37.404 57.5108 36.7334 58.9573 36.0248 60.3622C35.4628 61.4765 34.5825 62.0376 33.3307 61.9377C31.8309 61.818 30.5948 61.2093 29.6891 59.9965C29.9704 59.6 30.3004 59.6662 30.5886 59.665C31.499 59.661 32.4096 59.6955 33.3201 59.693C33.7823 59.6917 34.425 59.769 34.4751 59.1683C34.5301 58.5095 33.8534 58.5645 33.413 58.5421C32.0128 58.4708 30.6705 58.1916 29.2536 57.5332ZM5.07285 63.0605C5.39135 63.7429 5.4904 64.5436 6.0901 65.0693C6.65286 64.851 6.74774 64.3705 6.92857 63.9368C7.90519 61.5949 9.11444 59.4121 11.5247 58.2567C12.8877 57.6033 14.2781 56.9835 15.7735 56.6548C16.2114 56.5585 16.8354 56.5287 16.7178 55.8524C16.5119 54.6675 16.1616 53.5068 15.9736 52.3198C15.803 51.2428 14.796 50.8079 14.3367 49.9548C13.9462 49.2295 13.9745 48.8905 14.9066 48.9835C14.6005 48.4637 14.2324 48.0018 14.0403 47.4757C13.7213 46.6019 13.6214 45.6495 12.6177 45.1713C12.2851 45.0129 12.313 44.5452 12.3475 44.1542C12.4187 43.3489 12.4058 42.5449 11.9458 41.8269C11.6618 41.3837 11.6181 40.9045 11.9335 40.4976C12.4487 39.8332 12.3716 39.1846 12.1801 38.4201C12.0046 37.7194 11.9298 37.0497 11.2475 36.6165C10.9133 36.4043 10.9153 35.9925 10.8607 35.6163C10.6875 34.4224 10.5824 33.19 9.94657 32.1361C9.64633 31.6384 9.51295 31.2117 9.60438 30.6323C9.7448 29.7424 9.65599 28.7136 8.87917 28.2646C8.1784 27.8596 7.5118 27.4804 6.8447 26.5838C1.14736 38.6081 0.459041 50.6181 5.07285 63.0605ZM41.2873 76.5817C41.947 75.6159 41.804 74.7029 41.1884 73.7581C39.6682 71.4251 38.4152 68.9696 37.9054 66.1928C37.869 65.9944 37.9075 65.6888 37.5019 65.6713C36.982 66.5471 36.7921 67.4926 36.8287 68.5362C36.9058 70.7356 37.9684 72.5104 39.0907 74.2957C39.8946 75.5743 39.7077 76.2492 38.3293 76.8659C36.6557 77.6146 35.4645 78.8434 34.3932 80.2632C33.9282 80.8797 33.3785 81.4356 32.8389 81.9914C32.3734 82.4709 31.7876 82.6883 31.1085 82.7079C28.4817 82.7835 26.4445 81.9194 25.3223 79.3508C24.6881 77.8993 23.9202 76.5034 22.8547 75.299C20.4391 72.5687 19.0783 69.3336 18.3659 65.8C18.0126 64.0479 17.708 62.286 17.3728 60.5302C17.3088 60.1944 17.2179 59.8733 16.7736 59.8294C16.3374 59.7862 16.0607 59.9601 15.8983 60.3503C15.7946 60.5995 15.7224 60.8671 15.5853 61.0959C14.9478 62.1594 15.1898 63.493 14.5012 64.5427C13.9472 65.3873 13.7702 66.3392 13.7542 67.3405C13.7231 69.2775 14.4987 70.9586 15.4122 72.5847C17.4683 76.2448 20.3943 79.2128 23.2159 82.2574C24.8222 83.9906 26.4635 85.6933 28.1364 87.3622C29.7809 89.0026 30.9667 88.8795 32.0498 86.9608C33.0092 85.261 34.1242 83.7113 35.7806 82.6329C38.101 81.1224 39.7607 79.0172 41.2873 76.5817ZM40.9764 18.8707C40.1468 17.7371 38.6736 17.4919 37.7242 16.5208C37.6644 16.4596 37.5352 16.4516 37.4366 16.4452C35.9752 16.349 33.8208 18.0145 33.5291 19.4616C33.4281 19.9629 33.5026 20.487 33.9279 20.7401C35.1154 21.4465 36.2964 22.1306 36.6949 23.6241C37.3024 23.2117 37.325 22.7544 37.4409 22.3435C37.7117 21.3839 37.769 20.6363 36.5087 20.2184C35.7552 19.9686 35.3481 19.1084 35.1363 18.0906C37.7476 18.4224 39.415 20.3733 41.6986 20.8874C41.2264 22.4928 41.8031 23.4969 43.1837 23.7707C43.4466 23.8229 43.5635 24.0306 43.7004 24.2206C43.9364 24.5483 44.1035 25.0525 44.4186 25.1743C45.7628 25.6938 46.4465 26.7219 47.2614 27.8535C47.8848 28.7193 48.2525 29.5171 48.4436 30.4866C48.5012 30.7787 48.4107 31.1128 48.653 31.3496C49.1655 31.8508 48.9077 32.3394 48.6358 32.8178C48.453 33.1395 48.2243 33.4349 48.0281 33.7496C47.8962 33.9612 47.8311 34.1908 48.0406 34.3957C48.2677 34.6178 48.5498 34.6219 48.7781 34.4441C48.9839 34.2838 49.1742 34.0666 49.2906 33.8341C50.0916 32.2337 50.2881 30.5511 49.3755 28.9824C48.4042 27.3126 47.5622 25.5999 46.8666 23.8044C46.5197 22.9089 45.9005 22.2371 44.9574 21.9881C44.18 21.7828 43.7187 21.4118 43.6519 20.5588C43.6092 20.0141 43.2954 19.715 42.6674 19.9111C41.4248 20.2989 41.4204 20.2847 40.9764 18.8707ZM38.189 54.9287C38.3355 54.5122 37.7443 54.1288 38.1514 53.6682C38.5371 53.6361 38.8211 53.9103 39.1474 54.0609C39.8944 54.4055 40.5502 54.3083 40.9968 53.5886C41.743 52.386 42.4342 51.1459 42.9381 49.8221C43.2933 48.8887 42.9613 48.5146 41.996 48.2391C40.4715 47.8041 38.9121 48.4412 37.395 47.9988C37.0984 47.9123 36.8149 48.1082 36.6768 48.4349C36.5335 48.7739 36.784 48.9275 36.973 49.109C37.3393 49.4606 37.4839 49.9129 37.475 50.3922C37.457 51.3657 37.6358 52.3257 37.5796 53.3107C37.5485 53.8559 37.172 54.6992 38.189 54.9287ZM15.6367 28.9311C15.2981 29.1456 15.3765 29.3456 15.649 29.554C16.0503 29.8612 16.4414 30.1818 16.8432 30.4884C17.0858 30.6735 17.3482 30.8776 17.6702 30.7221C18.0613 30.5332 17.9421 30.1497 17.9473 29.8238C17.9557 29.3014 17.5895 28.7907 17.9155 28.1989C19.0016 28.5276 19.4097 29.9405 20.7133 30.0064C20.9149 29.0061 19.9466 28.424 19.9214 27.5803C20.3349 27.2576 20.8293 27.6893 21.2165 27.3344C20.9121 26.6209 19.8631 26.7586 19.5986 25.9618C19.9804 25.7502 20.3064 25.8852 20.6097 26.002C21.4269 26.3168 22.2695 26.2372 23.11 26.2041C23.3761 26.1937 23.6867 26.1997 23.7826 25.877C23.8828 25.5398 23.5977 25.3986 23.3702 25.2661C22.6658 24.8558 22.0319 24.3619 21.4654 23.7743C21.0715 23.3657 20.773 22.7551 20.1918 22.667C19.3695 22.5425 19.6108 23.5172 19.1908 23.835C18.4763 24.3757 17.9767 24.982 18.4314 25.9068C17.064 26.5354 16.7269 27.3249 17.4027 28.1953C16.9658 28.6976 16.2744 28.5806 15.6367 28.9311ZM30.8191 21.3263C30.5232 21.594 30.3028 21.3806 30.0133 21.2627C29.1423 20.908 27.9863 20.478 27.3334 20.9419C26.5297 21.5131 25.9776 21.6228 25.1027 21.3552C24.6781 21.2254 24.0354 21.4309 23.9571 22.0691C23.8813 22.6862 24.3244 22.8827 24.8676 23.0593C25.9202 23.4015 26.9526 23.1177 27.9265 22.9166C28.9498 22.7054 29.8448 21.978 31.0142 22.3732C31.3538 22.488 31.5737 22.0693 31.5412 21.6793C31.5097 21.3002 31.4231 20.9718 30.8191 21.3263ZM7.85054 25.8455C8.20116 25.5623 8.5741 25.531 8.98146 25.7222C9.24136 25.8442 9.57859 25.8908 9.7161 25.6245C10.2492 24.5921 11.0015 23.8073 12.1846 23.3868C11.1604 23.0655 10.5959 22.3391 9.87972 21.6248C8.92052 22.9496 8.07745 24.2257 7.48005 25.653C7.38519 25.8797 7.53019 25.9518 7.85054 25.8455ZM14.0725 16.3607C13.5627 17.0282 12.7424 17.4697 12.5166 18.3974C13.551 18.3951 15.5695 16.0807 15.3625 15.1916C14.8667 15.4436 14.5348 15.8694 14.0725 16.3607Z" fill="#1E1E1E"/>
<path d="M66.452 60.6671C65.9037 60.5096 65.3645 60.6577 64.888 60.329C65.4848 59.5221 65.8492 58.7559 64.6385 58.166C64.4865 58.092 64.4268 57.7516 64.394 57.5246C64.2929 56.8245 64.2067 56.1211 64.1503 55.4161C64.0898 54.6609 63.7318 54.2533 62.9554 54.1902C61.1982 54.0473 59.4542 54.3195 57.702 54.3393C57.1637 54.3454 56.9999 54.8454 57.0111 55.3055C57.0469 56.7761 56.6915 58.2765 57.319 59.706C57.3892 59.8658 57.4374 60.0598 57.3066 60.1836C56.7095 60.7485 55.9798 60.5663 55.2966 60.4564C54.7502 60.3685 54.6955 59.9338 54.7465 59.4382C55.0688 56.3088 54.8912 53.1717 54.8589 50.0371C54.8505 49.2155 54.6851 48.4826 53.7346 48.2328C53.5006 48.1713 53.2892 48.024 53.3056 47.7403C53.3261 47.3878 53.6071 47.3109 53.8845 47.3057C55.265 47.2796 56.6458 47.2616 58.0265 47.2591C58.3048 47.2586 58.5919 47.3678 58.624 47.6946C58.6565 48.0261 58.3968 48.1728 58.1151 48.2184C57.1632 48.3726 56.9711 49.0333 56.9835 49.852C56.9948 50.5945 56.9856 51.3374 56.9954 52.0799C57.0051 52.807 57.3377 53.2135 58.1091 53.2079C59.662 53.1966 61.2149 53.1979 62.7679 53.1989C63.7345 53.1995 64.1949 52.7192 64.1738 51.757C64.1596 51.1159 64.1913 50.4719 64.1413 49.834C64.0851 49.1172 63.9818 48.398 63.0956 48.1811C62.8954 48.1322 62.721 47.9948 62.7367 47.7529C62.756 47.4568 62.997 47.3411 63.2303 47.3382C64.5109 47.3224 65.7918 47.3278 67.0725 47.3414C67.2812 47.3437 67.468 47.4682 67.5175 47.691C67.5835 47.9883 67.3711 48.1408 67.1409 48.205C66.3129 48.4358 66.1806 49.1173 66.1605 49.797C66.0707 52.8334 66.0544 55.8703 66.302 58.9025C66.335 59.3076 66.5503 59.5749 66.843 59.8306C67.4481 60.3591 67.1993 60.6038 66.452 60.6671Z" fill="#1E1E1E"/>
<path d="M70.5404 58.2427C71.263 59.4545 72.2403 60.0491 73.6059 59.9079C75.2753 59.7354 76.1333 57.8868 75.2051 56.4817C74.5298 55.4594 73.478 55.0005 72.4009 54.5889C70.9131 54.0204 69.7309 53.1726 69.2759 51.5372C68.739 49.6073 69.971 47.5314 71.9435 47.1328C72.8418 46.9513 73.766 47.1691 74.6355 47.121C76.443 47.0211 76.5336 48.03 76.5503 49.319C76.5566 49.8081 76.8037 50.3144 76.314 50.7302C75.7361 50.616 75.6688 50.0853 75.4576 49.6919C75.0045 48.8481 74.3941 48.2036 73.4095 48.0427C72.338 47.8676 71.4041 48.3484 71.0635 49.212C70.6935 50.1502 70.9949 51.2079 71.8678 51.8117C72.2504 52.0763 72.7016 52.2481 73.1345 52.4317C73.5688 52.616 74.0245 52.7493 74.4616 52.9278C77.0491 53.9847 77.9823 56.1527 76.9317 58.6506C76.046 60.7566 73.6725 61.5875 71.2812 60.6197C70.7547 60.4066 70.2706 60.0669 69.6475 60.2399C69.3702 60.3169 69.1461 60.1246 69.1388 59.876C69.1028 58.6562 69.1528 57.444 69.7056 56.2077C70.3557 56.8315 70.1858 57.5983 70.5404 58.2427Z" fill="#1E1E1E"/>
<path d="M60.4779 14.1386C60.5488 13.8627 60.6018 13.6068 60.8576 13.6679C61.1683 13.7421 61.2003 14.0586 61.2268 14.3257C61.353 15.6011 61.5555 16.8764 61.5726 18.1538C61.6347 22.8103 62.1153 27.4454 62.2375 32.0975C62.276 33.5626 61.4055 34.1278 60.0096 33.5947C59.4235 33.3708 59.478 32.8633 59.4914 32.402C59.5648 29.8727 59.6119 27.3414 59.7525 24.8155C59.9494 21.2808 60.2207 17.7503 60.4779 14.1386Z" fill="#1E1E1E"/>
<path d="M75.811 17.1898C75.8219 18.5198 75.2054 19.6343 74.8248 20.8087C73.3377 25.3969 71.7159 29.9391 70.0373 34.461C69.7647 35.1952 69.4985 35.7697 68.5167 35.337C67.0501 34.6906 66.8939 34.5377 67.4037 33.4316C69.7906 28.2528 72.2463 23.1066 74.875 18.0455C75.0608 17.688 75.0974 17.0627 75.811 17.1898Z" fill="#1E1E1E"/>
<path d="M47.6031 54.0526C47.5967 52.6697 47.5789 51.388 47.5891 50.1066C47.596 49.2411 47.4681 48.4845 46.4862 48.1868C46.2615 48.1187 46.049 47.949 46.1047 47.6634C46.1605 47.3773 46.4158 47.3275 46.6555 47.3216C47.9014 47.2908 49.1477 47.2548 50.3937 47.2573C50.7078 47.258 51.1411 47.2527 51.1992 47.6933C51.2477 48.0608 50.9088 48.2059 50.6145 48.2846C49.8897 48.4783 49.6869 49.008 49.6884 49.6677C49.6947 52.5341 49.7043 55.4005 49.724 58.2668C49.7275 58.7768 49.8289 59.2709 50.1458 59.6983C50.4342 60.0875 50.3898 60.4469 49.8858 60.5249C49.0895 60.6482 48.2787 60.7259 47.4738 60.7283C46.9119 60.73 46.5936 60.3402 47.0305 59.8706C47.611 59.2466 47.5983 58.5393 47.5974 57.7964C47.5959 56.5823 47.6012 55.3681 47.6031 54.0526Z" fill="#1E1E1E"/>
<path d="M75.8969 29.0384C76.2855 27.759 76.9457 26.7554 78.0422 26.1097C78.9405 25.5808 79.4862 24.8256 79.7869 23.8476C80.0883 22.8672 80.7283 22.2235 81.775 21.9878C80.3112 23.5947 80.6119 26.1363 78.664 27.5025C77.8043 28.1054 77.496 29.2074 77.2912 30.2574C76.9725 31.8919 76.1529 33.2022 74.7341 34.1031C73.7923 34.7011 73.2498 35.5641 73.0348 36.6346C72.8652 37.4794 72.4892 37.605 71.7651 37.1571C70.2376 36.2122 70.0857 35.5038 71.1779 34.0673C71.7415 33.3261 72.4973 32.8076 73.2789 32.3428C74.5554 31.5837 75.4537 30.5461 75.8969 29.0384Z" fill="#1E1E1E"/>
<path d="M53.3838 18.6327C53.0065 17.7132 52.9234 16.8903 53.5009 16.1053C53.6203 16.1483 53.7286 16.1622 53.7334 16.1925C54.1067 18.5549 55.7191 20.6092 55.3966 23.1627C55.2991 23.9347 55.8905 24.6145 56.3027 25.2702C57.1879 26.6787 57.539 28.1965 57.1522 29.8193C56.8968 30.8906 57.1427 31.8069 57.6873 32.7119C58.3125 33.7505 58.2475 33.8673 57.0945 34.0342C55.369 34.284 54.7986 33.8187 54.6592 32.0624C54.594 31.2412 54.7209 30.441 54.9398 29.6589C55.342 28.2214 55.1962 26.8582 54.4878 25.5464C53.8014 24.2755 53.6045 22.9263 53.9496 21.5239C54.2041 20.4902 53.8605 19.5951 53.3838 18.6327Z" fill="#1E1E1E"/>
<path d="M64.178 29.4792C65.2736 28.0509 65.7938 26.5772 65.4889 24.7957C65.2976 23.6773 65.7168 22.5842 66.3409 21.6331C66.9553 20.6969 67.273 19.7447 67.1573 18.589C67.0681 17.6977 67.2532 16.7822 68.1657 16.2579C68.2595 16.3363 68.3583 16.3943 68.3509 16.416C67.9144 17.6943 68.1318 19.0043 68.1626 20.3032C68.1793 21.007 67.9176 21.6251 67.6228 22.2315C67.1167 23.2727 66.9795 24.341 67.243 25.4754C67.6203 27.0991 67.3474 28.6453 66.4736 30.0448C65.8361 31.0658 65.4932 32.1026 65.7493 33.3039C65.9127 34.07 65.5334 34.2676 64.8365 34.1657C63.1314 33.9161 62.6775 33.2086 63.1194 31.5042C63.3109 30.7659 63.7033 30.1461 64.178 29.4792Z" fill="#1E1E1E"/>
<path d="M59.6707 41.8134C59.407 41.3691 59.0449 41.3311 58.6612 41.3302C58.3242 41.3293 57.9849 41.3337 57.6507 41.298C57.078 41.2368 56.3709 41.2015 56.3944 40.4336C56.4208 39.571 57.1663 39.7905 57.7149 39.7866C58.0519 39.7842 58.3892 39.7887 58.726 39.7986C59.3997 39.8183 59.717 39.4656 59.7507 38.8214C59.7788 38.2834 59.7607 37.7403 59.8285 37.2079C59.8972 36.6691 60.2407 36.3585 60.8065 36.4071C61.3295 36.4521 61.4274 36.8512 61.4446 37.2832C61.454 37.5188 61.4491 37.7552 61.4467 37.9911C61.4288 39.7299 61.7093 39.9713 63.4759 39.7495C63.7756 39.7119 64.0802 39.6652 64.3793 39.6815C64.8675 39.7082 65.0892 40.0086 65.0835 40.49C65.078 40.9615 64.8754 41.2801 64.3804 41.3045C63.8086 41.3327 63.2336 41.3426 62.6619 41.3176C61.8086 41.2802 61.4346 41.669 61.4185 42.5156C61.3751 44.8061 61.3007 47.0961 61.2427 49.3864C61.2266 50.0208 61.1984 50.6452 60.6731 51.0859C60.0768 50.8758 60.1651 50.428 60.115 50.0435C59.8309 47.8611 59.9916 45.6659 59.9264 43.4773C59.9104 42.9391 59.9446 42.3948 59.6707 41.8134Z" fill="#1E1E1E"/>
<path d="M25.7644 42.6218C25.9957 42.2152 25.9869 42.1545 25.5414 42.1995C25.012 42.2529 24.5324 42.2381 24.1193 41.8663C23.9152 41.6826 23.6973 41.4828 23.807 41.1784C23.898 40.9259 24.1535 40.8682 24.3949 40.8635C24.9008 40.8536 25.4225 40.7839 25.9106 40.8785C27.825 41.2496 29.7299 41.6698 31.6352 42.0863C31.8948 42.1431 32.1492 42.2592 32.3836 42.3884C33.0414 42.7511 33.9291 42.9421 33.8141 43.9756C33.7003 44.9981 32.7708 45.8826 31.7231 46.0338C31.6563 46.0434 31.5816 46.0755 31.5234 46.057C30.1761 45.6279 28.8077 45.9107 27.445 45.9072C26.0508 45.9036 24.9661 45.1145 23.9411 44.2697C23.5835 43.975 23.1359 43.6431 23.3399 43.0987C23.5443 42.5532 24.0826 42.4379 24.605 42.4476C24.9704 42.4544 25.3341 42.557 25.7644 42.6218Z" fill="#1E1E1E"/>
</svg>
